<?xml version="1.0" encoding="UTF-8"?>
<svg id="Layer_1" data-name="Layer 1" xmlns="http://www.w3.org/2000/svg" viewBox="0 0 47.86 19.74">
  <g isolation="isolate">
    <path d="M8.73,5.01H4.28v3.09h4.09v2.3H4.28v4.9H1.44V2.7h7.29v2.31Z" fill="#fff"/>
    <path d="M18.31,15.3h-7.51V2.7h2.84V13h4.67v2.3Z" fill="#fff"/>
    <path d="M23.9,2.7v2.2h-1.05V13.1h1.05v2.2h-4.95v-2.2h1.05V4.9h-1.05V2.7h4.95Z" fill="#fff"/>
    <path d="M36,15.3h-3.37l-2.17-4.1c-.08-.15-.17-.43-.25-.84h-.04c-.04,.19-.14,.49-.29,.88l-2.18,4.07h-3.38l4.02-6.3-3.67-6.3h3.45l1.8,3.78c.14,.3,.27,.65,.38,1.06h.04c.07-.25,.2-.61,.4-1.1l2-3.74h3.16l-3.78,6.25,3.88,6.35Z" fill="#fff"/>
    <path d="M47.79,15.3h-3.37l-2.17-4.1c-.08-.15-.17-.43-.25-.84h-.04c-.04,.19-.14,.49-.29,.88l-2.18,4.07h-3.38l4.02-6.3-3.67-6.3h3.45l1.8,3.78c.14,.3,.27,.65,.38,1.06h.04c.07-.25,.2-.61,.4-1.1l2-3.74h3.16l-3.78,6.25,3.88,6.35Z" fill="#fff"/>
  </g>
</svg>