<svg width="32" height="32" viewBox="0 0 32 32" fill="none" xmlns="http://www.w3.org/2000/svg">
<path fill-rule="evenodd" clip-rule="evenodd" d="M28 13.3334C28 22.6667 16 30.6667 16 30.6667C16 30.6667 4 22.6667 4 13.3334C4 10.1508 5.26428 7.09853 7.51472 4.84809C9.76515 2.59766 12.8174 1.33337 16 1.33337C19.1826 1.33337 22.2348 2.59766 24.4853 4.84809C26.7357 7.09853 28 10.1508 28 13.3334ZM16 17.3334C18.2091 17.3334 20 15.5425 20 13.3334C20 11.1242 18.2091 9.33337 16 9.33337C13.7909 9.33337 12 11.1242 12 13.3334C12 15.5425 13.7909 17.3334 16 17.3334Z" fill="white"/>
</svg>
