<svg width="108" height="23" viewBox="0 0 108 23" fill="none" xmlns="http://www.w3.org/2000/svg">
<path d="M5.16785 0.699999L10.4179 10.72L15.7579 0.699999H20.2279L12.4879 14.56V22H8.37785V14.5L0.667852 0.699999H5.16785ZM26.7186 22.3C25.0186 22.3 23.5486 21.93 22.3086 21.19C21.0886 20.45 20.1386 19.47 19.4586 18.25C18.7786 17.01 18.4386 15.67 18.4386 14.23C18.4386 12.75 18.7686 11.39 19.4286 10.15C20.1086 8.89 21.0686 7.89 22.3086 7.15C23.5486 6.39 25.0286 6.01 26.7486 6.01C28.4686 6.01 29.9386 6.39 31.1586 7.15C32.3786 7.89 33.3086 8.88 33.9486 10.12C34.6086 11.34 34.9386 12.66 34.9386 14.08C34.9386 14.6 34.9086 15.05 34.8486 15.43H22.6986C22.7986 16.65 23.2486 17.61 24.0486 18.31C24.8686 19.01 25.8086 19.36 26.8686 19.36C27.6686 19.36 28.4186 19.17 29.1186 18.79C29.8386 18.39 30.3286 17.87 30.5886 17.23L34.0386 18.19C33.4586 19.39 32.5286 20.38 31.2486 21.16C29.9686 21.92 28.4586 22.3 26.7186 22.3ZM22.6086 12.88H30.8286C30.7086 11.7 30.2586 10.75 29.4786 10.03C28.7186 9.29 27.7886 8.92 26.6886 8.92C25.6086 8.92 24.6786 9.29 23.8986 10.03C23.1386 10.75 22.7086 11.7 22.6086 12.88ZM44.6776 22.3C42.9776 22.3 41.5076 21.93 40.2676 21.19C39.0476 20.45 38.0976 19.47 37.4176 18.25C36.7376 17.01 36.3976 15.67 36.3976 14.23C36.3976 12.75 36.7276 11.39 37.3876 10.15C38.0676 8.89 39.0276 7.89 40.2676 7.15C41.5076 6.39 42.9876 6.01 44.7076 6.01C46.4276 6.01 47.8976 6.39 49.1176 7.15C50.3376 7.89 51.2676 8.88 51.9076 10.12C52.5676 11.34 52.8976 12.66 52.8976 14.08C52.8976 14.6 52.8676 15.05 52.8076 15.43H40.6576C40.7576 16.65 41.2076 17.61 42.0076 18.31C42.8276 19.01 43.7676 19.36 44.8276 19.36C45.6276 19.36 46.3776 19.17 47.0776 18.79C47.7976 18.39 48.2876 17.87 48.5476 17.23L51.9976 18.19C51.4176 19.39 50.4876 20.38 49.2076 21.16C47.9276 21.92 46.4176 22.3 44.6776 22.3ZM40.5676 12.88H48.7876C48.6676 11.7 48.2176 10.75 47.4376 10.03C46.6776 9.29 45.7476 8.92 44.6476 8.92C43.5676 8.92 42.6376 9.29 41.8576 10.03C41.0976 10.75 40.6676 11.7 40.5676 12.88ZM64.2866 22.3C63.0866 22.3 62.0166 22.03 61.0766 21.49C60.1366 20.95 59.3966 20.21 58.8566 19.27V22H55.3466V0.0999994H59.3666V9.04C59.9266 8.1 60.6566 7.36 61.5566 6.82C62.4766 6.28 63.5466 6.01 64.7666 6.01C66.1266 6.01 67.3166 6.39 68.3366 7.15C69.3766 7.89 70.1866 8.88 70.7666 10.12C71.3466 11.36 71.6366 12.72 71.6366 14.2C71.6366 15.72 71.3166 17.09 70.6766 18.31C70.0366 19.53 69.1566 20.5 68.0366 21.22C66.9366 21.94 65.6866 22.3 64.2866 22.3ZM63.1766 18.88C64.0366 18.88 64.7866 18.67 65.4266 18.25C66.0866 17.83 66.5966 17.27 66.9566 16.57C67.3366 15.85 67.5266 15.07 67.5266 14.23C67.5266 13.37 67.3466 12.58 66.9866 11.86C66.6466 11.12 66.1666 10.53 65.5466 10.09C64.9266 9.65 64.2166 9.43 63.4166 9.43C62.5366 9.43 61.7266 9.73 60.9866 10.33C60.2666 10.91 59.7266 11.63 59.3666 12.49V16.24C59.6266 17.02 60.1366 17.66 60.8966 18.16C61.6566 18.64 62.4166 18.88 63.1766 18.88ZM81.6203 22.3C79.9003 22.3 78.4203 21.93 77.1803 21.19C75.9603 20.43 75.0203 19.43 74.3603 18.19C73.7003 16.95 73.3703 15.61 73.3703 14.17C73.3703 12.71 73.7003 11.36 74.3603 10.12C75.0403 8.88 75.9903 7.89 77.2103 7.15C78.4503 6.39 79.9203 6.01 81.6203 6.01C83.3203 6.01 84.7803 6.39 86.0003 7.15C87.2403 7.89 88.1903 8.88 88.8503 10.12C89.5103 11.36 89.8403 12.71 89.8403 14.17C89.8403 15.61 89.5103 16.95 88.8503 18.19C88.1903 19.43 87.2403 20.43 86.0003 21.19C84.7803 21.93 83.3203 22.3 81.6203 22.3ZM77.5103 14.17C77.5103 15.09 77.6903 15.91 78.0503 16.63C78.4103 17.33 78.9003 17.88 79.5203 18.28C80.1403 18.68 80.8403 18.88 81.6203 18.88C82.3803 18.88 83.0703 18.68 83.6903 18.28C84.3103 17.86 84.8003 17.3 85.1603 16.6C85.5403 15.88 85.7303 15.06 85.7303 14.14C85.7303 13.24 85.5403 12.44 85.1603 11.74C84.8003 11.02 84.3103 10.46 83.6903 10.06C83.0703 9.64 82.3803 9.43 81.6203 9.43C80.8403 9.43 80.1403 9.64 79.5203 10.06C78.9003 10.46 78.4103 11.02 78.0503 11.74C77.6903 12.44 77.5103 13.25 77.5103 14.17ZM103.294 22L98.7036 15.22L96.5736 17.32V22H92.5536V0.0999994H96.5736V13.36L102.904 6.31H107.164L101.314 12.97L107.584 22H103.294Z" fill="white"/>
</svg>
