<svg width="204" height="25" viewBox="0 0 204 25" fill="none" xmlns="http://www.w3.org/2000/svg">
<path d="M1.34161 22.048C1.91761 22.432 2.57894 22.7413 3.32561 22.976C4.07228 23.1893 4.91494 23.296 5.85361 23.296C7.56028 23.296 8.82961 22.8907 9.66161 22.08C10.4936 21.2693 11.0376 20.096 11.2936 18.56C11.5496 17.024 11.6776 15.1573 11.6776 12.96V1.28H12.7656V12.832C12.7656 14.56 12.6909 16.128 12.5416 17.536C12.3923 18.944 12.0829 20.16 11.6136 21.184C11.1656 22.1867 10.4723 22.9653 9.53361 23.52C8.61628 24.0747 7.38961 24.352 5.85361 24.352C3.91228 24.352 2.26961 23.8827 0.925609 22.944L1.34161 22.048ZM16.5024 19.232C16.5024 18.272 16.7904 17.4293 17.3664 16.704C17.9637 15.9787 18.7744 15.4133 19.7984 15.008C20.8437 14.5813 22.049 14.368 23.4144 14.368C24.3104 14.368 25.2384 14.4533 26.1984 14.624C27.1584 14.7733 28.0224 14.9867 28.7904 15.264V13.504C28.7904 11.8827 28.3104 10.5813 27.3504 9.6C26.4117 8.59733 25.1424 8.096 23.5424 8.096C22.7317 8.096 21.8677 8.27733 20.9504 8.64C20.033 8.98133 19.1157 9.472 18.1984 10.112L17.6544 9.312C19.809 7.84 21.793 7.104 23.6064 7.104C25.5264 7.104 27.0517 7.69067 28.1824 8.864C29.313 10.016 29.8784 11.584 29.8784 13.568V22.336C29.8784 22.8053 30.0704 23.04 30.4544 23.04V24C30.1344 24.0213 29.9317 24.0107 29.8464 23.968C29.5477 23.904 29.313 23.744 29.1424 23.488C28.9717 23.232 28.8757 22.9547 28.8544 22.656V21.216C28.0864 22.1973 27.0837 22.9653 25.8464 23.52C24.6304 24.0533 23.3397 24.32 21.9744 24.32C20.929 24.32 19.9904 24.096 19.1584 23.648C18.3477 23.1787 17.697 22.56 17.2064 21.792C16.737 21.024 16.5024 20.1707 16.5024 19.232ZM28.2144 20.672C28.5984 20.1813 28.7904 19.712 28.7904 19.264V16.224C27.1477 15.584 25.377 15.264 23.4784 15.264C21.7077 15.264 20.2784 15.6267 19.1904 16.352C18.1024 17.056 17.5584 17.9947 17.5584 19.168C17.5584 19.936 17.7504 20.64 18.1344 21.28C18.5397 21.92 19.0837 22.432 19.7664 22.816C20.449 23.2 21.2277 23.392 22.1024 23.392C23.425 23.392 24.6304 23.1467 25.7184 22.656C26.8277 22.144 27.6597 21.4827 28.2144 20.672ZM48.1271 24H47.0391V14.72C47.0391 12.4373 46.7084 10.7733 46.0471 9.728C45.4071 8.66133 44.3831 8.128 42.9751 8.128C41.9724 8.128 40.9911 8.37333 40.0311 8.864C39.0711 9.33333 38.2284 9.984 37.5031 10.816C36.7778 11.6267 36.2658 12.5547 35.9671 13.6V24H34.8791V7.36H35.9351V11.52C36.3831 10.6453 36.9804 9.87733 37.7271 9.216C38.4951 8.55467 39.3484 8.04267 40.2871 7.68C41.2258 7.296 42.1858 7.104 43.1671 7.104C44.9164 7.104 46.1751 7.73333 46.9431 8.992C47.7324 10.2507 48.1271 12.1173 48.1271 14.592V24ZM66.3771 24H65.2891V14.72C65.2891 12.4373 64.9584 10.7733 64.2971 9.728C63.6571 8.66133 62.6331 8.128 61.2251 8.128C60.2224 8.128 59.2411 8.37333 58.2811 8.864C57.3211 9.33333 56.4784 9.984 55.7531 10.816C55.0278 11.6267 54.5158 12.5547 54.2171 13.6V24H53.1291V7.36H54.1851V11.52C54.6331 10.6453 55.2304 9.87733 55.9771 9.216C56.7451 8.55467 57.5984 8.04267 58.5371 7.68C59.4758 7.296 60.4358 7.104 61.4171 7.104C63.1664 7.104 64.4251 7.73333 65.1931 8.992C65.9824 10.2507 66.3771 12.1173 66.3771 14.592V24ZM78.2911 24.32C77.1604 24.32 76.1044 24.096 75.1231 23.648C74.1418 23.1787 73.2778 22.5493 72.5311 21.76C71.8058 20.9493 71.2298 20.0213 70.8031 18.976C70.3978 17.9093 70.1951 16.7787 70.1951 15.584C70.1951 14.0267 70.5471 12.608 71.2511 11.328C71.9551 10.048 72.9044 9.024 74.0991 8.256C75.3151 7.488 76.6698 7.104 78.1631 7.104C79.6991 7.104 81.0644 7.49867 82.2591 8.288C83.4751 9.056 84.4351 10.0907 85.1391 11.392C85.8644 12.672 86.2378 14.1013 86.2591 15.68C86.2591 15.7653 86.2484 15.8507 86.2271 15.936C86.2271 16.0213 86.2271 16.1067 86.2271 16.192H71.3151C71.4218 17.536 71.7951 18.752 72.4351 19.84C73.0964 20.928 73.9391 21.792 74.9631 22.432C75.9871 23.072 77.1178 23.392 78.3551 23.392C79.5711 23.392 80.7124 23.0827 81.7791 22.464C82.8458 21.824 83.6031 21.0133 84.0511 20.032L85.0431 20.288C84.7231 21.056 84.2218 21.7493 83.5391 22.368C82.8564 22.9653 82.0564 23.4453 81.1391 23.808C80.2431 24.1493 79.2938 24.32 78.2911 24.32ZM71.2831 15.264H85.1711C85.0858 13.856 84.7231 12.6187 84.0831 11.552C83.4431 10.464 82.6111 9.61067 81.5871 8.992C80.5844 8.37333 79.4538 8.064 78.1951 8.064C76.9578 8.064 75.8271 8.37333 74.8031 8.992C73.8004 9.61067 72.9791 10.464 72.3391 11.552C71.7204 12.64 71.3684 13.8773 71.2831 15.264ZM95.5661 24V1.28H104.878C106.115 1.28 107.225 1.62133 108.206 2.304C109.187 2.98667 109.955 3.86133 110.51 4.928C111.086 5.99467 111.374 7.09333 111.374 8.224C111.374 9.44 111.107 10.5813 110.574 11.648C110.041 12.6933 109.305 13.5573 108.366 14.24C107.427 14.9013 106.329 15.232 105.07 15.232H96.6861V24H95.5661ZM96.6861 14.208H105.038C106.126 14.208 107.054 13.92 107.822 13.344C108.611 12.7467 109.209 12 109.614 11.104C110.041 10.1867 110.254 9.22667 110.254 8.224C110.254 7.2 110.009 6.24 109.518 5.344C109.027 4.42667 108.366 3.69067 107.534 3.136C106.723 2.58133 105.827 2.304 104.846 2.304H96.6861V14.208ZM121.465 24.32C119.971 24.32 118.617 23.9253 117.401 23.136C116.185 22.3467 115.225 21.3013 114.521 20C113.817 18.6987 113.465 17.28 113.465 15.744C113.465 14.5707 113.667 13.4613 114.073 12.416C114.499 11.3707 115.075 10.4533 115.801 9.664C116.547 8.87467 117.401 8.256 118.361 7.808C119.321 7.33867 120.355 7.104 121.465 7.104C122.574 7.104 123.609 7.33867 124.569 7.808C125.55 8.256 126.403 8.87467 127.129 9.664C127.875 10.4533 128.451 11.3707 128.857 12.416C129.283 13.4613 129.497 14.5707 129.497 15.744C129.497 16.896 129.283 17.9947 128.857 19.04C128.451 20.064 127.886 20.9707 127.161 21.76C126.435 22.5493 125.582 23.1787 124.601 23.648C123.641 24.096 122.595 24.32 121.465 24.32ZM114.553 15.776C114.553 17.1627 114.862 18.432 115.481 19.584C116.121 20.7147 116.953 21.6213 117.977 22.304C119.022 22.9653 120.174 23.296 121.433 23.296C122.713 23.296 123.875 22.9547 124.921 22.272C125.966 21.5893 126.798 20.672 127.417 19.52C128.057 18.3467 128.377 17.0773 128.377 15.712C128.377 14.3253 128.057 13.0667 127.417 11.936C126.798 10.784 125.966 9.86667 124.921 9.184C123.875 8.48 122.723 8.128 121.465 8.128C120.227 8.128 119.075 8.48 118.009 9.184C116.963 9.86667 116.121 10.7947 115.481 11.968C114.862 13.12 114.553 14.3893 114.553 15.776ZM140.404 24.32C139.274 24.32 138.218 24.096 137.236 23.648C136.255 23.1787 135.391 22.5493 134.644 21.76C133.919 20.9493 133.343 20.0213 132.916 18.976C132.511 17.9093 132.308 16.7787 132.308 15.584C132.308 14.0267 132.66 12.608 133.364 11.328C134.068 10.048 135.018 9.024 136.212 8.256C137.428 7.488 138.783 7.104 140.276 7.104C141.812 7.104 143.178 7.49867 144.372 8.288C145.588 9.056 146.548 10.0907 147.252 11.392C147.978 12.672 148.351 14.1013 148.372 15.68C148.372 15.7653 148.362 15.8507 148.34 15.936C148.34 16.0213 148.34 16.1067 148.34 16.192H133.428C133.535 17.536 133.908 18.752 134.548 19.84C135.21 20.928 136.052 21.792 137.076 22.432C138.1 23.072 139.231 23.392 140.468 23.392C141.684 23.392 142.826 23.0827 143.892 22.464C144.959 21.824 145.716 21.0133 146.164 20.032L147.156 20.288C146.836 21.056 146.335 21.7493 145.652 22.368C144.97 22.9653 144.17 23.4453 143.252 23.808C142.356 24.1493 141.407 24.32 140.404 24.32ZM133.396 15.264H147.284C147.199 13.856 146.836 12.6187 146.196 11.552C145.556 10.464 144.724 9.61067 143.7 8.992C142.698 8.37333 141.567 8.064 140.308 8.064C139.071 8.064 137.94 8.37333 136.916 8.992C135.914 9.61067 135.092 10.464 134.452 11.552C133.834 12.64 133.482 13.8773 133.396 15.264ZM159.48 24.32C158.157 24.32 156.92 23.968 155.768 23.264C154.616 22.5387 153.709 21.6533 153.048 20.608V24H152.024V0.639999H153.112V11.136C153.944 9.96267 154.904 9.00267 155.992 8.256C157.08 7.488 158.338 7.104 159.768 7.104C160.984 7.104 162.061 7.36 163 7.872C163.96 8.36267 164.76 9.024 165.4 9.856C166.061 10.688 166.562 11.616 166.904 12.64C167.266 13.664 167.448 14.6987 167.448 15.744C167.448 16.8747 167.245 17.9627 166.84 19.008C166.434 20.032 165.869 20.9493 165.144 21.76C164.418 22.5493 163.565 23.1787 162.584 23.648C161.624 24.096 160.589 24.32 159.48 24.32ZM159.32 23.296C160.344 23.296 161.282 23.0827 162.136 22.656C162.989 22.2293 163.725 21.664 164.344 20.96C164.984 20.2347 165.474 19.424 165.816 18.528C166.178 17.6107 166.36 16.6827 166.36 15.744C166.36 14.4213 166.072 13.184 165.496 12.032C164.92 10.88 164.12 9.94133 163.096 9.216C162.093 8.49067 160.93 8.128 159.608 8.128C158.605 8.128 157.688 8.34133 156.856 8.768C156.024 9.19467 155.288 9.77067 154.648 10.496C154.029 11.2 153.517 11.9573 153.112 12.768V18.56C153.176 19.2 153.41 19.808 153.816 20.384C154.242 20.96 154.765 21.472 155.384 21.92C156.002 22.3467 156.653 22.688 157.336 22.944C158.04 23.1787 158.701 23.296 159.32 23.296ZM178.373 24.32C177.242 24.32 176.186 24.096 175.205 23.648C174.224 23.1787 173.36 22.5493 172.613 21.76C171.888 20.9493 171.312 20.0213 170.885 18.976C170.48 17.9093 170.277 16.7787 170.277 15.584C170.277 14.0267 170.629 12.608 171.333 11.328C172.037 10.048 172.986 9.024 174.181 8.256C175.397 7.488 176.752 7.104 178.245 7.104C179.781 7.104 181.146 7.49867 182.341 8.288C183.557 9.056 184.517 10.0907 185.221 11.392C185.946 12.672 186.32 14.1013 186.341 15.68C186.341 15.7653 186.33 15.8507 186.309 15.936C186.309 16.0213 186.309 16.1067 186.309 16.192H171.397C171.504 17.536 171.877 18.752 172.517 19.84C173.178 20.928 174.021 21.792 175.045 22.432C176.069 23.072 177.2 23.392 178.437 23.392C179.653 23.392 180.794 23.0827 181.861 22.464C182.928 21.824 183.685 21.0133 184.133 20.032L185.125 20.288C184.805 21.056 184.304 21.7493 183.621 22.368C182.938 22.9653 182.138 23.4453 181.221 23.808C180.325 24.1493 179.376 24.32 178.373 24.32ZM171.365 15.264H185.253C185.168 13.856 184.805 12.6187 184.165 11.552C183.525 10.464 182.693 9.61067 181.669 8.992C180.666 8.37333 179.536 8.064 178.277 8.064C177.04 8.064 175.909 8.37333 174.885 8.992C173.882 9.61067 173.061 10.464 172.421 11.552C171.802 12.64 171.45 13.8773 171.365 15.264ZM203.24 24H202.152V14.72C202.152 12.4373 201.822 10.7733 201.16 9.728C200.52 8.66133 199.496 8.128 198.088 8.128C197.086 8.128 196.104 8.37333 195.144 8.864C194.184 9.33333 193.342 9.984 192.616 10.816C191.891 11.6267 191.379 12.5547 191.08 13.6V24H189.992V7.36H191.048V11.52C191.496 10.6453 192.094 9.87733 192.84 9.216C193.608 8.55467 194.462 8.04267 195.4 7.68C196.339 7.296 197.299 7.104 198.28 7.104C200.03 7.104 201.288 7.73333 202.056 8.992C202.846 10.2507 203.24 12.1173 203.24 14.592V24Z" fill="white"/>
</svg>
