<svg width="165" height="24" viewBox="0 0 165 24" fill="none" xmlns="http://www.w3.org/2000/svg">
<path d="M0.506 22.5V22.18L1.306 21.892C1.73267 21.7213 2.06333 21.5187 2.298 21.284C2.53267 21.028 2.72467 20.676 2.874 20.228L9.466 1.316H12.186L18.682 20.356C18.8527 20.8253 19.0447 21.188 19.258 21.444C19.4713 21.6787 19.802 21.8813 20.25 22.052L20.634 22.18V22.5H12.506V22.18L12.986 22.02C13.434 21.8493 13.7007 21.6147 13.786 21.316C13.8927 20.996 13.882 20.6227 13.754 20.196L12.25 15.588H5.146L3.61 20.1C3.46067 20.5693 3.40733 20.9427 3.45 21.22C3.514 21.4973 3.77 21.7213 4.218 21.892L4.922 22.18V22.5H0.506ZM5.37 14.948H12.058L8.826 4.996L5.37 14.948ZM21.7985 22.5V22.18L22.1825 22.052C22.9505 21.796 23.3345 21.2627 23.3345 20.452V3.332C23.3345 2.90533 23.2492 2.58533 23.0785 2.372C22.9078 2.13733 22.6092 1.96667 22.1825 1.86L21.7665 1.764V1.444L27.6225 0.0679989L28.0065 0.355999L27.8785 4.836V15.78C27.8785 16.5693 27.8785 17.3587 27.8785 18.148C27.8998 18.916 27.9105 19.684 27.9105 20.452C27.9105 20.8787 27.9958 21.2307 28.1665 21.508C28.3372 21.764 28.6252 21.956 29.0305 22.084L29.4465 22.18V22.5H21.7985ZM30.9548 22.5V22.18L31.3388 22.052C32.1068 21.796 32.4908 21.2627 32.4908 20.452V3.332C32.4908 2.90533 32.4054 2.58533 32.2348 2.372C32.0641 2.13733 31.7654 1.96667 31.3388 1.86L30.9228 1.764V1.444L36.7788 0.0679989L37.1628 0.355999L37.0348 4.836V15.78C37.0348 16.5693 37.0348 17.3587 37.0348 18.148C37.0561 18.916 37.0668 19.684 37.0668 20.452C37.0668 20.8787 37.1521 21.2307 37.3228 21.508C37.4934 21.764 37.7814 21.956 38.1868 22.084L38.6028 22.18V22.5H30.9548ZM44.3745 22.98C43.1372 22.98 42.0918 22.628 41.2385 21.924C40.4065 21.22 39.9905 20.2067 39.9905 18.884C39.9905 17.8813 40.5025 16.964 41.5265 16.132C42.5505 15.2787 44.1612 14.6387 46.3585 14.212C46.6998 14.148 47.0838 14.084 47.5105 14.02C47.9372 13.9347 48.3852 13.8493 48.8545 13.764V11.236C48.8545 9.78533 48.6732 8.772 48.3105 8.196C47.9692 7.59867 47.4252 7.3 46.6785 7.3C46.1665 7.3 45.7612 7.47067 45.4625 7.812C45.1638 8.132 44.9718 8.69733 44.8865 9.508L44.8225 9.86C44.7798 10.7773 44.5558 11.4493 44.1505 11.876C43.7452 12.3027 43.2438 12.516 42.6465 12.516C42.0918 12.516 41.6332 12.3453 41.2705 12.004C40.9078 11.6627 40.7265 11.204 40.7265 10.628C40.7265 9.75333 41.0252 9.01733 41.6225 8.42C42.2412 7.82267 43.0518 7.37467 44.0545 7.076C45.0572 6.77733 46.1452 6.628 47.3185 6.628C49.2172 6.628 50.6785 7.09733 51.7025 8.036C52.7478 8.95333 53.2705 10.4573 53.2705 12.548V19.62C53.2705 20.58 53.7185 21.06 54.6145 21.06H55.3185L55.6065 21.316C55.2012 21.828 54.7532 22.2227 54.2625 22.5C53.7932 22.7773 53.1212 22.916 52.2465 22.916C51.3078 22.916 50.5612 22.7027 50.0065 22.276C49.4732 21.828 49.1212 21.2413 48.9505 20.516C48.3105 21.1987 47.6492 21.7853 46.9665 22.276C46.3052 22.7453 45.4412 22.98 44.3745 22.98ZM46.3265 21.028C46.7532 21.028 47.1478 20.932 47.5105 20.74C47.8945 20.5267 48.3425 20.2067 48.8545 19.78V14.404C48.6412 14.4467 48.4278 14.4893 48.2145 14.532C48.0012 14.5747 47.7558 14.6173 47.4785 14.66C46.4972 14.916 45.7078 15.3533 45.1105 15.972C44.5345 16.5693 44.2465 17.38 44.2465 18.404C44.2465 19.2787 44.4492 19.94 44.8545 20.388C45.2598 20.8147 45.7505 21.028 46.3265 21.028ZM70.1778 23.076C69.0044 23.076 67.8098 22.9267 66.5938 22.628C65.3778 22.3507 64.3644 21.9773 63.5538 21.508L63.7138 17.156H64.0338L65.0258 19.236C65.3244 19.8333 65.6444 20.3667 65.9858 20.836C66.3271 21.284 66.7964 21.636 67.3938 21.892C67.8204 22.1053 68.2258 22.2547 68.6098 22.34C69.0151 22.404 69.4631 22.436 69.9538 22.436C71.2551 22.436 72.2791 22.084 73.0258 21.38C73.7938 20.676 74.1778 19.7693 74.1778 18.66C74.1778 17.6147 73.9218 16.804 73.4098 16.228C72.8978 15.6307 72.0764 15.0547 70.9458 14.5L69.6338 13.924C67.7991 13.1133 66.3591 12.1853 65.3138 11.14C64.2898 10.0733 63.7778 8.66533 63.7778 6.916C63.7778 5.65733 64.0978 4.56933 64.7378 3.652C65.3991 2.73467 66.3058 2.03067 67.4578 1.54C68.6311 1.04933 69.9964 0.803999 71.5538 0.803999C72.6844 0.803999 73.7511 0.953332 74.7538 1.252C75.7778 1.55067 76.6631 1.956 77.4098 2.468L77.2178 6.308H76.8978L75.5858 3.908C75.2231 3.16133 74.8604 2.63866 74.4978 2.34C74.1351 2.02 73.7191 1.796 73.2498 1.668C72.9724 1.58267 72.7164 1.52933 72.4818 1.508C72.2471 1.46533 71.9484 1.444 71.5858 1.444C70.4978 1.444 69.5804 1.764 68.8338 2.404C68.0871 3.02267 67.7138 3.86533 67.7138 4.932C67.7138 6.02 68.0018 6.89467 68.5778 7.556C69.1538 8.196 69.9964 8.772 71.1058 9.284L72.5778 9.924C74.6258 10.82 76.0978 11.78 76.9938 12.804C77.8898 13.8067 78.3378 15.108 78.3378 16.708C78.3378 18.5853 77.6231 20.1213 76.1938 21.316C74.7858 22.4893 72.7804 23.076 70.1778 23.076ZM83.7613 4.964C83.0359 4.964 82.4173 4.74 81.9053 4.292C81.4146 3.82267 81.1693 3.236 81.1693 2.532C81.1693 1.80667 81.4146 1.22 81.9053 0.771999C82.4173 0.323999 83.0359 0.0999985 83.7613 0.0999985C84.4866 0.0999985 85.0946 0.323999 85.5853 0.771999C86.0759 1.22 86.3213 1.80667 86.3213 2.532C86.3213 3.236 86.0759 3.82267 85.5853 4.292C85.0946 4.74 84.4866 4.964 83.7613 4.964ZM79.9853 22.5V22.18L80.4333 22.052C80.8599 21.924 81.1479 21.732 81.2973 21.476C81.4679 21.22 81.5533 20.8787 81.5533 20.452V10.436C81.5533 9.988 81.4679 9.65733 81.2973 9.444C81.1479 9.20933 80.8599 9.04933 80.4333 8.964L79.9853 8.868V8.548L85.8413 6.66L86.1613 6.98L86.0653 11.524V20.484C86.0653 20.9107 86.1399 21.252 86.2893 21.508C86.4599 21.764 86.7479 21.956 87.1533 22.084L87.4733 22.18V22.5H79.9853ZM88.986 22.5V22.18L89.37 22.052C90.138 21.796 90.522 21.2627 90.522 20.452V3.332C90.522 2.90533 90.4367 2.58533 90.266 2.372C90.0953 2.13733 89.7967 1.96667 89.37 1.86L88.954 1.764V1.444L94.81 0.0679989L95.194 0.355999L95.066 4.836V15.78C95.066 16.5693 95.066 17.3587 95.066 18.148C95.0873 18.916 95.098 19.684 95.098 20.452C95.098 20.8787 95.1833 21.2307 95.354 21.508C95.5247 21.764 95.8127 21.956 96.218 22.084L96.634 22.18V22.5H88.986ZM104.902 22.596L99.2378 8.996C98.9391 8.27067 98.4271 7.79067 97.7018 7.556L97.2538 7.428V7.108H105.542V7.428L104.966 7.556C104.134 7.76933 103.878 8.324 104.198 9.22L107.558 18.148L110.694 9.284C110.864 8.85733 110.907 8.50533 110.822 8.228C110.736 7.95067 110.48 7.748 110.054 7.62L109.254 7.428V7.108H113.894V7.428L112.966 7.652C112.56 7.75867 112.24 7.91867 112.006 8.132C111.792 8.34533 111.611 8.66533 111.462 9.092L106.758 22.596H104.902ZM118.625 22.98C117.387 22.98 116.342 22.628 115.489 21.924C114.657 21.22 114.241 20.2067 114.241 18.884C114.241 17.8813 114.753 16.964 115.777 16.132C116.801 15.2787 118.411 14.6387 120.609 14.212C120.95 14.148 121.334 14.084 121.76 14.02C122.187 13.9347 122.635 13.8493 123.105 13.764V11.236C123.105 9.78533 122.923 8.772 122.561 8.196C122.219 7.59867 121.675 7.3 120.929 7.3C120.417 7.3 120.011 7.47067 119.713 7.812C119.414 8.132 119.222 8.69733 119.137 9.508L119.073 9.86C119.03 10.7773 118.806 11.4493 118.401 11.876C117.995 12.3027 117.494 12.516 116.897 12.516C116.342 12.516 115.883 12.3453 115.521 12.004C115.158 11.6627 114.977 11.204 114.977 10.628C114.977 9.75333 115.275 9.01733 115.873 8.42C116.491 7.82267 117.302 7.37467 118.305 7.076C119.307 6.77733 120.395 6.628 121.569 6.628C123.467 6.628 124.929 7.09733 125.953 8.036C126.998 8.95333 127.521 10.4573 127.521 12.548V19.62C127.521 20.58 127.969 21.06 128.865 21.06H129.569L129.857 21.316C129.451 21.828 129.003 22.2227 128.513 22.5C128.043 22.7773 127.371 22.916 126.497 22.916C125.558 22.916 124.811 22.7027 124.257 22.276C123.723 21.828 123.371 21.2413 123.201 20.516C122.561 21.1987 121.899 21.7853 121.217 22.276C120.555 22.7453 119.691 22.98 118.625 22.98ZM120.577 21.028C121.003 21.028 121.398 20.932 121.76 20.74C122.145 20.5267 122.593 20.2067 123.105 19.78V14.404C122.891 14.4467 122.678 14.4893 122.465 14.532C122.251 14.5747 122.006 14.6173 121.729 14.66C120.747 14.916 119.958 15.3533 119.361 15.972C118.785 16.5693 118.497 17.38 118.497 18.404C118.497 19.2787 118.699 19.94 119.105 20.388C119.51 20.8147 120.001 21.028 120.577 21.028ZM130.453 22.5V22.18L130.901 22.052C131.647 21.8387 132.021 21.316 132.021 20.484V10.468C132.021 9.99867 131.946 9.65733 131.797 9.444C131.647 9.20933 131.359 9.04933 130.933 8.964L130.453 8.836V8.516L135.925 6.66L136.245 6.98L136.501 8.9C137.247 8.23867 138.09 7.69467 139.029 7.268C139.967 6.84133 140.895 6.628 141.813 6.628C143.221 6.628 144.298 7.012 145.045 7.78C145.813 8.548 146.197 9.72133 146.197 11.3V20.516C146.197 21.348 146.602 21.8707 147.413 22.084L147.701 22.18V22.5H140.149V22.18L140.565 22.052C141.311 21.8173 141.685 21.2947 141.685 20.484V10.276C141.685 8.91067 141.002 8.228 139.637 8.228C138.698 8.228 137.674 8.69733 136.565 9.636V20.516C136.565 21.348 136.938 21.8707 137.685 22.084L137.973 22.18V22.5H130.453ZM157.049 22.98C155.427 22.98 154.019 22.6493 152.825 21.988C151.63 21.3053 150.702 20.3453 150.041 19.108C149.401 17.8707 149.081 16.42 149.081 14.756C149.081 13.092 149.422 11.652 150.105 10.436C150.809 9.22 151.758 8.28133 152.953 7.62C154.169 6.95867 155.534 6.628 157.049 6.628C158.563 6.628 159.918 6.95867 161.113 7.62C162.307 8.26 163.246 9.188 163.929 10.404C164.633 11.62 164.985 13.0707 164.985 14.756C164.985 16.4413 164.654 17.9027 163.993 19.14C163.353 20.356 162.435 21.3053 161.241 21.988C160.067 22.6493 158.67 22.98 157.049 22.98ZM157.049 22.34C157.795 22.34 158.393 22.1267 158.841 21.7C159.289 21.2733 159.609 20.516 159.801 19.428C160.014 18.34 160.121 16.804 160.121 14.82C160.121 12.8147 160.014 11.268 159.801 10.18C159.609 9.092 159.289 8.33467 158.841 7.908C158.393 7.48133 157.795 7.268 157.049 7.268C156.302 7.268 155.694 7.48133 155.225 7.908C154.777 8.33467 154.446 9.092 154.233 10.18C154.041 11.268 153.945 12.8147 153.945 14.82C153.945 16.804 154.041 18.34 154.233 19.428C154.446 20.516 154.777 21.2733 155.225 21.7C155.694 22.1267 156.302 22.34 157.049 22.34Z" fill="white"/>
</svg>
