<svg width="92" height="26" viewBox="0 0 92 26" fill="none" xmlns="http://www.w3.org/2000/svg">
<path d="M0.284359 25.82L4.74836 1.088C4.77236 0.991999 4.83236 0.943999 4.92836 0.943999H10.1484C10.2444 0.943999 10.3044 0.991999 10.3284 1.088L14.6124 25.82C14.6364 25.94 14.5884 26 14.4684 26H10.4724C10.3764 26 10.3164 25.94 10.2924 25.82L9.89636 23.192H5.00036L4.60436 25.82C4.58036 25.94 4.52036 26 4.42436 26H0.428359C0.332359 26 0.284359 25.94 0.284359 25.82ZM5.72036 19.34H9.17636L7.70036 9.224L7.48436 7.892L7.34036 9.224L5.72036 19.34ZM17.0156 26C16.9196 26 16.8716 25.94 16.8716 25.82L16.9076 1.124C16.9076 1.004 16.9676 0.943999 17.0876 0.943999H21.0836C21.2036 0.943999 21.2636 1.004 21.2636 1.124L21.2276 21.572H28.6436C28.7636 21.572 28.8236 21.632 28.8236 21.752V25.82C28.8236 25.94 28.7636 26 28.6436 26H17.0156ZM31.3242 26C31.2282 26 31.1802 25.94 31.1802 25.82L31.2162 1.088C31.2162 0.991999 31.2642 0.943999 31.3602 0.943999H42.9162C43.0122 0.943999 43.0602 1.004 43.0602 1.124V5.156C43.0602 5.252 43.0122 5.3 42.9162 5.3H35.5362V10.916H42.9162C43.0122 10.916 43.0602 10.964 43.0602 11.06L43.0962 15.128C43.0962 15.224 43.0482 15.272 42.9522 15.272H35.5362V21.572H42.9522C43.0482 21.572 43.0962 21.632 43.0962 21.752V25.856C43.0962 25.952 43.0482 26 42.9522 26H31.3242ZM44.7219 25.82L49.1859 1.088C49.2099 0.991999 49.2699 0.943999 49.3659 0.943999H54.5859C54.6819 0.943999 54.7419 0.991999 54.7659 1.088L59.0499 25.82C59.0739 25.94 59.0259 26 58.9059 26H54.9099C54.8139 26 54.7539 25.94 54.7299 25.82L54.3339 23.192H49.4379L49.0419 25.82C49.0179 25.94 48.9579 26 48.8619 26H44.8659C44.7699 26 44.7219 25.94 44.7219 25.82ZM50.1579 19.34H53.6139L52.1379 9.224L51.9219 7.892L51.7779 9.224L50.1579 19.34ZM61.6331 26C61.4411 26 61.3451 25.916 61.3451 25.748L61.3091 1.232C61.3091 1.04 61.4051 0.943999 61.5971 0.943999H64.8371L70.9211 15.128L70.7411 1.232C70.7411 1.04 70.8491 0.943999 71.0651 0.943999H74.6291C74.7731 0.943999 74.8451 1.04 74.8451 1.232L74.8811 25.784C74.8811 25.928 74.8211 26 74.7011 26H71.5331L65.3051 12.752L65.5571 25.712C65.5571 25.904 65.4491 26 65.2331 26H61.6331ZM76.7844 25.82L81.2484 1.088C81.2724 0.991999 81.3324 0.943999 81.4284 0.943999H86.6484C86.7444 0.943999 86.8044 0.991999 86.8284 1.088L91.1124 25.82C91.1364 25.94 91.0884 26 90.9684 26H86.9724C86.8764 26 86.8164 25.94 86.7924 25.82L86.3964 23.192H81.5004L81.1044 25.82C81.0804 25.94 81.0204 26 80.9244 26H76.9284C76.8324 26 76.7844 25.94 76.7844 25.82ZM82.2204 19.34H85.6764L84.2004 9.224L83.9844 7.892L83.8404 9.224L82.2204 19.34Z" fill="white"/>
</svg>
