<svg width="90" height="24" viewBox="0 0 90 24" fill="none" xmlns="http://www.w3.org/2000/svg">
<path d="M0.225055 0.199998H5.56306L7.94305 17.234H8.01106L10.3911 0.199998H15.7291V24H12.1931V5.98H12.1251L9.40506 24H6.27706L3.55706 5.98H3.48906V24H0.225055V0.199998ZM18.52 0.199998H22.26V24H18.52V0.199998ZM25.061 0.199998H29.753L33.391 14.446H33.459V0.199998H36.791V24H32.949L28.461 6.626H28.393V24H25.061V0.199998ZM39.5708 0.199998H43.3108V24H39.5708V0.199998ZM46.1118 0.199998H51.4498L53.8298 17.234H53.8978L56.2778 0.199998H61.6158V24H58.0798V5.98H58.0118L55.2918 24H52.1638L49.4438 5.98H49.3758V24H46.1118V0.199998ZM67.2967 0.199998H72.3627L76.2387 24H72.4987L71.8187 19.274V19.342H67.5687L66.8887 24H63.4207L67.2967 0.199998ZM71.3767 16.112L69.7107 4.348H69.6427L68.0107 16.112H71.3767ZM78.0532 0.199998H82.7452L86.3832 14.446H86.4512V0.199998H89.7832V24H85.9412L81.4532 6.626H81.3852V24H78.0532V0.199998Z" fill="white"/>
</svg>
