<svg width="127" height="31" viewBox="0 0 127 31" fill="none" xmlns="http://www.w3.org/2000/svg">
<path d="M11.7404 24C11.5364 24 11.4117 23.898 11.3664 23.694L10.5164 19.478C10.5164 19.4327 10.4937 19.3987 10.4484 19.376C10.4257 19.3533 10.3917 19.342 10.3464 19.342H4.19241C4.14707 19.342 4.10174 19.3533 4.05641 19.376C4.03374 19.3987 4.02241 19.4327 4.02241 19.478L3.17241 23.694C3.14974 23.898 3.02507 24 2.79841 24H1.06441C0.951073 24 0.860406 23.966 0.792406 23.898C0.747073 23.83 0.73574 23.7393 0.758406 23.626L5.85841 0.505998C5.90374 0.301998 6.02841 0.199998 6.23241 0.199998H8.27241C8.49907 0.199998 8.62374 0.301998 8.64641 0.505998L13.8144 23.626V23.694C13.8144 23.898 13.7124 24 13.5084 24H11.7404ZM4.46441 17.234C4.46441 17.3247 4.49841 17.37 4.56641 17.37H9.93841C10.0064 17.37 10.0404 17.3247 10.0404 17.234L7.32041 3.872C7.29774 3.804 7.27507 3.77 7.25241 3.77C7.22974 3.77 7.20707 3.804 7.18441 3.872L4.46441 17.234ZM24.1225 7.136C24.1225 6.90933 24.2358 6.796 24.4625 6.796H26.1965C26.4232 6.796 26.5365 6.90933 26.5365 7.136V23.66C26.5365 26.0853 25.9698 27.9213 24.8365 29.168C23.7258 30.4373 21.8558 31.0153 19.2265 30.902C18.9998 30.8793 18.8865 30.7547 18.8865 30.528V29.066C18.8865 28.8393 18.9998 28.726 19.2265 28.726C21.0398 28.7713 22.3092 28.352 23.0345 27.468C23.7598 26.6067 24.1225 25.2693 24.1225 23.456V22.436C24.1225 22.3907 24.0998 22.3567 24.0545 22.334C24.0318 22.3113 23.9978 22.3227 23.9525 22.368C23.5672 22.9347 23.0685 23.3653 22.4565 23.66C21.8672 23.9547 21.2325 24.102 20.5525 24.102C19.1245 24.102 17.9912 23.626 17.1525 22.674C16.3365 21.722 15.9285 20.464 15.9285 18.9V11.726C15.9285 10.1393 16.3365 8.88133 17.1525 7.952C17.9912 7 19.1245 6.524 20.5525 6.524C21.2325 6.524 21.8672 6.67133 22.4565 6.966C23.0685 7.238 23.5672 7.65733 23.9525 8.224C23.9978 8.292 24.0318 8.326 24.0545 8.326C24.0998 8.30333 24.1225 8.258 24.1225 8.19V7.136ZM21.2665 21.994C22.1052 21.994 22.7852 21.6993 23.3065 21.11C23.8505 20.498 24.1225 19.716 24.1225 18.764V11.896C24.1225 10.9213 23.8505 10.1393 23.3065 9.55C22.7852 8.938 22.1052 8.632 21.2665 8.632C20.4052 8.632 19.7025 8.938 19.1585 9.55C18.6145 10.1393 18.3425 10.9213 18.3425 11.896V18.764C18.3425 19.716 18.6145 20.498 19.1585 21.11C19.7025 21.6993 20.4052 21.994 21.2665 21.994ZM35.3114 24.272C33.6794 24.272 32.3761 23.796 31.4014 22.844C30.4494 21.892 29.9734 20.634 29.9734 19.07V11.76C29.9734 10.2187 30.4608 8.96067 31.4354 7.986C32.4101 7.01133 33.7021 6.524 35.3114 6.524C36.9434 6.524 38.2468 7.01133 39.2214 7.986C40.1961 8.96067 40.6834 10.2187 40.6834 11.76V19.07C40.6834 20.634 40.1961 21.892 39.2214 22.844C38.2468 23.796 36.9434 24.272 35.3114 24.272ZM35.3114 22.13C36.1728 22.13 36.8754 21.8353 37.4194 21.246C37.9861 20.6567 38.2694 19.8747 38.2694 18.9V11.896C38.2694 10.9213 37.9861 10.1393 37.4194 9.55C36.8754 8.938 36.1728 8.632 35.3114 8.632C34.4501 8.632 33.7474 8.938 33.2034 9.55C32.6594 10.1393 32.3874 10.9213 32.3874 11.896V18.9C32.3874 19.8747 32.6594 20.6567 33.2034 21.246C33.7474 21.8353 34.4501 22.13 35.3114 22.13ZM50.2728 6.626C50.8394 6.626 51.3268 6.75067 51.7348 7C51.8934 7.09067 51.9501 7.238 51.9048 7.442L51.4968 9.21C51.4741 9.414 51.3381 9.482 51.0888 9.414C50.8168 9.278 50.4768 9.21 50.0688 9.21C49.8874 9.21 49.7514 9.22133 49.6608 9.244C48.8448 9.28933 48.1761 9.72 47.6548 10.536C47.1334 11.3293 46.8728 12.304 46.8728 13.46V23.66C46.8728 23.8867 46.7594 24 46.5328 24H44.7988C44.5721 24 44.4588 23.8867 44.4588 23.66V7.136C44.4588 6.90933 44.5721 6.796 44.7988 6.796H46.5328C46.7594 6.796 46.8728 6.90933 46.8728 7.136V9.176C46.8728 9.244 46.8841 9.278 46.9068 9.278C46.9521 9.278 46.9974 9.25533 47.0428 9.21C47.7001 7.48733 48.7768 6.626 50.2728 6.626ZM54.2401 30.8C54.1948 30.8 54.1495 30.766 54.1041 30.698C54.0588 30.63 54.0361 30.5507 54.0361 30.46V29.1C54.0361 28.8733 54.1495 28.76 54.3761 28.76C55.0788 28.7373 55.6228 28.6013 56.0081 28.352C56.4161 28.1027 56.7448 27.6607 56.9941 27.026C57.2435 26.3913 57.4928 25.4167 57.7421 24.102C57.7648 24.0567 57.7648 24.0227 57.7421 24C57.7421 23.9547 57.7421 23.9207 57.7421 23.898L53.4241 7.17L53.3901 7.068C53.3901 6.88667 53.5035 6.796 53.7301 6.796H55.5661C55.7928 6.796 55.9175 6.898 55.9401 7.102L58.9321 20.464C58.9548 20.532 58.9775 20.566 59.0001 20.566C59.0228 20.566 59.0455 20.532 59.0681 20.464L62.0261 7.102C62.0715 6.898 62.1961 6.796 62.4001 6.796L64.3041 6.83C64.4175 6.83 64.4968 6.864 64.5421 6.932C64.6101 7 64.6215 7.09067 64.5761 7.204L59.8501 25.496C59.4421 27.0147 59.0341 28.1367 58.6261 28.862C58.2408 29.5873 57.7308 30.086 57.0961 30.358C56.4615 30.6527 55.5661 30.8 54.4101 30.8H54.2401ZM68.0497 24C67.8231 24 67.7097 23.8867 67.7097 23.66V0.539998C67.7097 0.313332 67.8231 0.199998 68.0497 0.199998H73.2857C75.0311 0.199998 76.4251 0.777998 77.4677 1.934C78.5104 3.06733 79.0317 4.59733 79.0317 6.524V17.676C79.0317 19.6027 78.5104 21.144 77.4677 22.3C76.4251 23.4333 75.0311 24 73.2857 24H68.0497ZM70.1237 21.756C70.1237 21.8467 70.1691 21.892 70.2597 21.892L73.2517 21.858C74.2491 21.858 75.0424 21.4727 75.6317 20.702C76.2437 19.9313 76.5611 18.8887 76.5837 17.574V6.626C76.5837 5.28867 76.2891 4.23467 75.6997 3.464C75.1104 2.69333 74.2944 2.308 73.2517 2.308H70.2597C70.1691 2.308 70.1237 2.35333 70.1237 2.444V21.756ZM93.4084 15.976C93.4084 16.2027 93.2951 16.316 93.0684 16.316H85.3164C85.2257 16.316 85.1804 16.3613 85.1804 16.452V18.934C85.1804 19.886 85.4411 20.668 85.9624 21.28C86.5064 21.8693 87.2091 22.164 88.0704 22.164C88.7957 22.164 89.4077 21.9487 89.9064 21.518C90.4277 21.0647 90.7677 20.4867 90.9264 19.784C90.9944 19.58 91.1191 19.478 91.3004 19.478L93.0004 19.546C93.0911 19.546 93.1704 19.58 93.2384 19.648C93.3064 19.716 93.3291 19.8067 93.3064 19.92C93.1251 21.2573 92.5697 22.3227 91.6404 23.116C90.7337 23.8867 89.5437 24.272 88.0704 24.272C86.4611 24.272 85.1691 23.796 84.1944 22.844C83.2424 21.892 82.7664 20.634 82.7664 19.07V11.726C82.7664 10.1847 83.2424 8.938 84.1944 7.986C85.1691 7.01133 86.4611 6.524 88.0704 6.524C89.7024 6.524 90.9944 7.01133 91.9464 7.986C92.9211 8.938 93.4084 10.1847 93.4084 11.726V15.976ZM88.0704 8.632C87.2091 8.632 86.5064 8.938 85.9624 9.55C85.4411 10.1393 85.1804 10.9213 85.1804 11.896V14.174C85.1804 14.2647 85.2257 14.31 85.3164 14.31H90.8924C90.9831 14.31 91.0284 14.2647 91.0284 14.174V11.896C91.0284 10.9213 90.7564 10.1393 90.2124 9.55C89.6684 8.938 88.9544 8.632 88.0704 8.632ZM101.885 6.524C103.472 6.524 104.741 7.04533 105.693 8.088C106.645 9.108 107.121 10.4793 107.121 12.202V23.66C107.121 23.8867 107.008 24 106.781 24H105.047C104.821 24 104.707 23.8867 104.707 23.66V22.64C104.707 22.5947 104.685 22.572 104.639 22.572C104.617 22.5493 104.583 22.5607 104.537 22.606C103.699 23.7167 102.441 24.272 100.763 24.272C99.5166 24.272 98.4286 23.9207 97.4993 23.218C96.5926 22.4927 96.1393 21.2233 96.1393 19.41C96.1393 17.4833 96.6946 16.078 97.8053 15.194C98.916 14.2873 100.378 13.834 102.191 13.834H104.571C104.662 13.834 104.707 13.7887 104.707 13.698V12.372C104.707 11.2387 104.447 10.332 103.925 9.652C103.404 8.972 102.701 8.632 101.817 8.632C101.137 8.632 100.548 8.85867 100.049 9.312C99.5733 9.76533 99.29 10.3433 99.1993 11.046C99.1993 11.2727 99.086 11.386 98.8593 11.386L96.9553 11.352C96.842 11.352 96.7513 11.318 96.6833 11.25C96.638 11.182 96.6266 11.1027 96.6493 11.012C96.7626 9.67467 97.3066 8.598 98.2813 7.782C99.256 6.94333 100.457 6.524 101.885 6.524ZM101.273 22.164C102.203 22.164 103.007 21.8693 103.687 21.28C104.367 20.668 104.707 19.8293 104.707 18.764V15.908C104.707 15.8173 104.662 15.772 104.571 15.772H102.157C101.069 15.772 100.208 16.0667 99.5733 16.656C98.9386 17.2227 98.6213 18.0727 98.6213 19.206C98.6213 20.2033 98.8593 20.9513 99.3353 21.45C99.834 21.926 100.48 22.164 101.273 22.164ZM111.034 24C110.808 24 110.694 23.8867 110.694 23.66V0.539998C110.694 0.313332 110.808 0.199998 111.034 0.199998H112.768C112.995 0.199998 113.108 0.313332 113.108 0.539998V23.66C113.108 23.8867 112.995 24 112.768 24H111.034ZM121.529 24.17C119.965 24.17 118.707 23.7733 117.755 22.98C116.825 22.164 116.361 21.0873 116.361 19.75V19.512C116.361 19.2853 116.474 19.172 116.701 19.172H118.333C118.559 19.172 118.673 19.2853 118.673 19.512V19.716C118.673 20.4413 118.933 21.0533 119.455 21.552C119.999 22.0507 120.701 22.3 121.563 22.3C122.379 22.3 123.036 22.0507 123.535 21.552C124.033 21.0533 124.283 20.4187 124.283 19.648C124.283 19.0587 124.124 18.5713 123.807 18.186C123.489 17.778 123.115 17.4607 122.685 17.234C122.277 17.0073 121.653 16.7127 120.815 16.35C119.931 15.9873 119.194 15.636 118.605 15.296C118.038 14.9333 117.539 14.4347 117.109 13.8C116.701 13.1427 116.497 12.3153 116.497 11.318C116.497 9.86733 116.939 8.72267 117.823 7.884C118.729 7.04533 119.942 6.626 121.461 6.626C123.002 6.626 124.226 7.05667 125.133 7.918C126.039 8.77933 126.493 9.924 126.493 11.352V11.454C126.493 11.6807 126.379 11.794 126.153 11.794H124.589C124.362 11.794 124.249 11.6807 124.249 11.454V11.25C124.249 10.4793 123.988 9.84467 123.467 9.346C122.968 8.84733 122.311 8.598 121.495 8.598C120.679 8.598 120.021 8.85867 119.523 9.38C119.047 9.87867 118.809 10.502 118.809 11.25C118.809 11.794 118.956 12.2587 119.251 12.644C119.545 13.0067 119.908 13.3127 120.339 13.562C120.769 13.7887 121.37 14.072 122.141 14.412C123.07 14.82 123.829 15.2053 124.419 15.568C125.031 15.9307 125.563 16.4407 126.017 17.098C126.47 17.7553 126.697 18.5713 126.697 19.546C126.697 20.9513 126.232 22.0733 125.303 22.912C124.373 23.7507 123.115 24.17 121.529 24.17Z" fill="white"/>
</svg>
