<svg width="93" height="27" viewBox="0 0 93 27" fill="none" xmlns="http://www.w3.org/2000/svg">
<path d="M0.947141 26V0.843998H3.79714V12.016H18.4271V0.843998H21.2771V26H18.4271V14.79H3.79714V26H0.947141ZM34.8532 26.304C33.0039 26.304 31.3826 25.8733 29.9892 25.012C28.6212 24.1253 27.5572 22.9347 26.7972 21.44C26.0372 19.9453 25.6572 18.2987 25.6572 16.5C25.6572 14.676 26.0372 13.0293 26.7972 11.56C27.5572 10.0653 28.6212 8.88733 29.9892 8.026C31.3826 7.13933 33.0039 6.696 34.8532 6.696C36.4239 6.696 37.7666 7 38.8812 7.608C40.0212 8.216 40.9459 9.03933 41.6552 10.078V7H44.5052V26H41.6552V22.96C40.9459 23.9733 40.0212 24.784 38.8812 25.392C37.7666 26 36.4239 26.304 34.8532 26.304ZM35.2332 23.72C36.6519 23.72 37.8426 23.3907 38.8052 22.732C39.7932 22.0733 40.5406 21.1993 41.0472 20.11C41.5539 18.9953 41.8072 17.792 41.8072 16.5C41.8072 15.1827 41.5539 13.9793 41.0472 12.89C40.5406 11.8007 39.7932 10.9267 38.8052 10.268C37.8426 9.60933 36.6519 9.28 35.2332 9.28C33.8399 9.28 32.6366 9.60933 31.6232 10.268C30.6099 10.9267 29.8372 11.8007 29.3052 12.89C28.7732 13.9793 28.5072 15.1827 28.5072 16.5C28.5072 17.792 28.7732 18.9953 29.3052 20.11C29.8372 21.1993 30.6099 22.0733 31.6232 22.732C32.6366 23.3907 33.8399 23.72 35.2332 23.72ZM49.4348 26V7H52.2848V11.674C52.3862 11.3447 52.5762 10.914 52.8548 10.382C53.1588 9.82467 53.5895 9.26733 54.1468 8.71C54.7042 8.15267 55.4008 7.684 56.2368 7.304C57.0982 6.89867 58.1115 6.696 59.2768 6.696H59.4668V9.546H59.1248C57.7062 9.546 56.4775 9.93867 55.4388 10.724C54.4255 11.484 53.6402 12.4847 53.0828 13.726C52.5508 14.942 52.2848 16.2467 52.2848 17.64V26H49.4348ZM62.5345 26V7H65.3845V11.674C65.4858 11.3447 65.6758 10.914 65.9545 10.382C66.2585 9.82467 66.6891 9.26733 67.2465 8.71C67.8038 8.15267 68.5005 7.684 69.3365 7.304C70.1978 6.89867 71.2111 6.696 72.3765 6.696H72.5665V9.546H72.2245C70.8058 9.546 69.5771 9.93867 68.5385 10.724C67.5251 11.484 66.7398 12.4847 66.1825 13.726C65.6505 14.942 65.3845 16.2467 65.3845 17.64V26H62.5345ZM83.3976 26.304C81.4723 26.304 79.8003 25.8733 78.3816 25.012C76.963 24.1253 75.8736 22.9347 75.1136 21.44C74.3536 19.9453 73.9736 18.2987 73.9736 16.5C73.9736 14.676 74.3536 13.0293 75.1136 11.56C75.8736 10.0653 76.963 8.88733 78.3816 8.026C79.8003 7.13933 81.4723 6.696 83.3976 6.696C85.3483 6.696 87.0203 7.13933 88.4136 8.026C89.8323 8.88733 90.9216 10.0653 91.6816 11.56C92.4416 13.0293 92.8216 14.676 92.8216 16.5C92.8216 18.2987 92.4416 19.9453 91.6816 21.44C90.9216 22.9347 89.8323 24.1253 88.4136 25.012C87.0203 25.8733 85.3483 26.304 83.3976 26.304ZM83.3976 23.72C84.8163 23.72 86.007 23.3907 86.9696 22.732C87.9576 22.0733 88.705 21.1993 89.2116 20.11C89.7183 18.9953 89.9716 17.792 89.9716 16.5C89.9716 15.1827 89.7183 13.9793 89.2116 12.89C88.705 11.8007 87.9576 10.9267 86.9696 10.268C86.007 9.60933 84.8163 9.28 83.3976 9.28C82.0043 9.28 80.8136 9.60933 79.8256 10.268C78.8376 10.9267 78.0903 11.8007 77.5836 12.89C77.077 13.9793 76.8236 15.1827 76.8236 16.5C76.8236 17.792 77.077 18.9953 77.5836 20.11C78.0903 21.1993 78.8376 22.0733 79.8256 22.732C80.8136 23.3907 82.0043 23.72 83.3976 23.72Z" fill="white"/>
</svg>
